<?xml version="1.0" encoding="UTF-8" standalone="no"?>
<svg width="1317pt" height="133pt" viewBox="0 0 1317 133" xmlns="http://www.w3.org/2000/svg">
<rect width="1317" height="133" fill="white"/>
<g font-family="Arial" font-size="10" text-anchor="middle">
<rect x="0" y="34" width="93" height="36" rx="12" fill="#f4faf4" stroke="#d9d9d9"/><text x="46.5" y="49">GREENHOUSE</text><text x="46.5" y="60">Environment</text>
<rect x="211" y="34" width="172" height="36" rx="12" fill="white" stroke="#d9d9d9"/><text x="297" y="49">BME280</text><text x="297" y="60">Temperature • Humidity • Pressure</text>
<rect x="511" y="34" width="140" height="36" rx="12" fill="#fff7ee" stroke="#d9d9d9"/><text x="581" y="49">Raspberry Pi Pico W</text><text x="581" y="60">I2C acquisition + alert logic</text>
<rect x="779" y="0" width="112" height="36" rx="12" fill="#f7f7f7" stroke="#d9d9d9"/><text x="835" y="15">Local RGB Alert</text><text x="835" y="26">Green • Yellow • Red</text>
<rect x="791" y="68" width="88" height="36" rx="12" fill="white" stroke="#d9d9d9"/><text x="835" y="83">Wi-Fi</text><text x="835" y="94">Wokwi / WLAN</text>
<rect x="985" y="68" width="105" height="36" rx="12" fill="#eef6ff" stroke="#d9d9d9"/><text x="1037.5" y="83">Blynk Cloud</text><text x="1037.5" y="94">MQTT datastreams</text>
<rect x="1160" y="68" width="128" height="36" rx="12" fill="#eef6ff" stroke="#d9d9d9"/><text x="1224" y="83">Web Dashboard</text><text x="1224" y="94">Live values + Alert Level</text>
</g>
<g stroke="#666" fill="none" marker-end="url(#a)">
<defs><marker id="a" markerWidth="8" markerHeight="8" refX="7" refY="3" orient="auto"><path d="M0,0 L0,6 L7,3 z" fill="#666"/></marker></defs>
<path d="M93,52 L211,52"/><path d="M383,52 L511,52"/><path d="M651,43 L779,23"/><path d="M651,61 L791,84"/><path d="M879,86 L985,86"/><path d="M1090,86 L1160,86"/>
</g>
<g font-family="Arial" font-size="9" text-anchor="middle" fill="#333">
<text x="152" y="45">physical variables</text><text x="447" y="44">I2C</text><text x="447" y="56">GP2 SDA / GP3 SCL</text>
<text x="715" y="14">GP13 / GP14 / GP15</text><text x="715" y="26">220 Ω per channel</text><text x="715" y="82">network data</text><text x="938" y="78">MQTT / TCP</text><text x="1125" y="78">V0-V3</text>
</g></svg>